<svg version="1.2" xmlns="http://www.w3.org/2000/svg"  width="406" height="80">
	<title>Новый проект</title>
	<style>
		.s0 { paint-order:stroke fill markers;stroke: #a96c23;stroke-width: 4;stroke-linejoin: round;;fill: #ffaa45 }
	</style>
	<path id="EDUCRM" class="s0" aria-label="EDUCRM"  d="m12.4 66l9.7-49.6h34.5l-1.9 9.7h-21.7l-1.8 9.2h20.4l-1.9 9.7h-20.4l-2.2 11.3h22.4l-1.8 9.7zm71.5-39.9h-4.5l-5.9 30.2h4.6q8.9 0 14.1-5 5.2-5 5.2-13.5 0-5.8-3.4-8.8-3.4-2.9-10.1-2.9zm-25.1 39.9l9.7-49.6h13.4q9.6 0 14.5 1.2 4.8 1.1 8 3.8 3.2 2.7 4.8 6.5 1.6 3.9 1.6 8.7 0 6.8-2.8 12.7-2.7 6-7.7 10-4.4 3.6-10.2 5.2-5.8 1.5-17.8 1.5zm60.3-19.9l5.8-29.7h12.8l-5.8 29.7q-0.3 1.6-0.5 2.8-0.1 1.3-0.1 2.2 0 3.2 1.7 4.9 1.8 1.6 5.2 1.6 4.7 0 7.1-2.6 2.5-2.6 3.7-8.9l5.8-29.7h12.8l-5.8 29.7q-2.1 11-8.2 15.9-6 5-17.2 5-8.8 0-13.4-3.8-4.6-3.8-4.6-10.9 0-1.2 0.2-2.7 0.2-1.5 0.5-3.5zm93.3 6.6l-2.2 11q-4.6 1.6-8.8 2.4-4.2 0.9-8 0.9-10 0-15.9-5.5-6-5.5-6-14.5 0-6 1.9-11.2 1.9-5.3 5.6-9.6 4.3-5.2 10.4-7.9 6.2-2.8 13.2-2.8 3.9 0 7.8 1 3.8 0.9 7.9 2.7l-2.1 10.3q-3.2-2.4-6.4-3.6-3.2-1.1-6.9-1.1-7.7 0-12.9 5.9-5.1 5.9-5.1 14.8 0 5.7 3.1 8.9 3.2 3.3 8.8 3.3 3.4 0 7.2-1.2 3.7-1.2 8.4-3.8zm26.1-14.3h5.4q4.3 0 6.6-2 2.2-2 2.2-6 0-2.4-1.5-3.5-1.6-1.2-4.9-1.2h-5.3zm2.4 8.8h-4.1l-3.6 18.8h-12.8l9.6-49.6h18.9q8.2 0 12.4 3.1 4.2 3 4.2 9 0 6-3.3 9.9-3.3 3.8-9 4.4 2.6 0.5 4.3 2.7 1.8 2.1 3.1 6.4l4.2 14.1h-12.7l-3.8-12.3q-1.1-3.7-2.7-5.1-1.6-1.4-4.7-1.4zm31.8 18.8l9.7-49.6h15.7l6.4 26.3 16.7-26.3h16.4l-9.7 49.6h-12.1l7-36.6-17.2 27.1h-6.8l-6.9-27.1-7 36.6z"/>
</svg>
